# xmcd
#
# Track frame offsets:
#	150
#	16387
#	32845
#	51527
#	65105
#	86127
#	98307
#	113950
#	128310
#	142047
#	157850
#	172309
#	187497
#	201925
#	213677
#
# Disc length: 2999
#
# Revision: 2
# Processed by: cddbd v1.5.1PL0 Copyright (c) Steve Scherf et al.
# Submitted via: audiograbber 1.83.01
# Normalized: r1:TDELIM( - )
#
DISCID=e40bb50f
DTITLE=Various Artist - SC7208
DYEAR=1900
DGENRE=Karaoke Country
TTITLE0=George Strait - All My Ex's Live In Texas
TTITLE1=Billy Ray Cyrus - Achy Breaky Heart
TTITLE2=Alabama - Mountain Music
TTITLE3=Dolly Parton - 9 To 5
TTITLE4=Reba McEntire - Fancy
TTITLE5=Alan Jackson - Chattahoochee
TTITLE6=Willie Nelson and Waylon Jennings - Good Hearted Woman (Duet)
TTITLE7=Hank Williams Jr - All My Rowdy Friends Are Coming Over
TTITLE8=Alan Jackson - Don't Rock The Jukebox
TTITLE9=Brooks and Dunn - Boot Scootin' Boogie
TTITLE10=Traditional Bluegrass - Rocky Top
TTITLE11=John Anderson - Swingin'
TTITLE12=Hank Williams - Hey, Good Lookin'
TTITLE13=Willie Nelson - On The Road Again
TTITLE14=Barbara Mandrell - Sleeping Single In A Double Bed
EXTD=
EXTT0=
EXTT1=
EXTT2=
EXTT3=
EXTT4=
EXTT5=
EXTT6=
EXTT7=
EXTT8=
EXTT9=
EXTT10=
EXTT11=
EXTT12=
EXTT13=
EXTT14=
PLAYORDER=
